<svg xmlns="http://www.w3.org/2000/svg" viewBox="0 0 64 64">
  <!-- Background -->
  <rect width="64" height="64" rx="12" fill="#4267B2" />
  
  <!-- Document/Note -->
  <rect x="12" y="10" width="40" height="44" rx="4" fill="#FFFFFF" />
  <rect x="18" y="20" width="28" height="2" rx="1" fill="#E0E0E0" />
  <rect x="18" y="26" width="28" height="2" rx="1" fill="#E0E0E0" />
  <rect x="18" y="32" width="20" height="2" rx="1" fill="#E0E0E0" />
  
  <!-- Question Mark -->
  <path d="M32 44C30.3431 44 29 45.3431 29 47C29 48.6569 30.3431 50 32 50C33.6569 50 35 48.6569 35 47C35 45.3431 33.6569 44 32 44Z" fill="#4267B2" />
  <path d="M32 16C27.0294 16 23 20.0294 23 25H27C27 22.2386 29.2386 20 32 20C34.7614 20 37 22.2386 37 25C37 27.7614 34.7614 30 32 30V36H36V33.1801C39.5312 31.4128 42 28.391 42 25C42 20.0294 37.9706 16 32 16Z" fill="#4267B2" />
  
  <!-- Tag -->
  <rect x="43" y="10" width="16" height="12" rx="6" fill="#FF6B6B" />
</svg>